<svg width="22" height="22" viewBox="0 0 22 22" fill="none" xmlns="http://www.w3.org/2000/svg">
<path d="M20.2731 2.4495H18.045V1.63782C18.045 1.28186 17.7564 0.993286 17.4005 0.993286C17.0445 0.993286 16.756 1.28186 16.756 1.63782V2.4495H5.24399V1.63782C5.24399 1.28186 4.95541 0.993286 4.59946 0.993286C4.24351 0.993286 3.95493 1.28186 3.95493 1.63782V2.4495H1.72687C0.774684 2.4495 0 3.22418 0 4.17637V19.2798C0 20.2319 0.774684 21.0066 1.72687 21.0066H20.2731C21.2253 21.0066 22 20.2319 22 19.2798V4.17637C22 3.22418 21.2253 2.4495 20.2731 2.4495ZM20.7109 19.2798C20.7109 19.5171 20.5104 19.7176 20.2731 19.7176H1.72687C1.48955 19.7176 1.28906 19.5171 1.28906 19.2798V4.17637C1.28906 3.93905 1.48955 3.73856 1.72687 3.73856H3.95493V4.52704C3.95493 4.88299 4.24351 5.17157 4.59946 5.17157C4.95541 5.17157 5.24399 4.88299 5.24399 4.52704V3.73856H16.756V4.52704C16.756 4.88299 17.0445 5.17157 17.4005 5.17157C17.7564 5.17157 18.045 4.88299 18.045 4.52704V3.73856H20.2731C20.5104 3.73856 20.7109 3.93905 20.7109 4.17637V19.2798Z" fill="#A3A3A3"/>
<path d="M18.2895 7.34061C18.0378 7.08894 17.6297 7.08894 17.378 7.34061L16.7501 7.96847L16.1223 7.34061C15.8706 7.08894 15.4625 7.08894 15.2108 7.34061C14.959 7.59227 14.959 8.00039 15.2108 8.2521L15.8386 8.87996L15.2108 9.50782C14.959 9.75949 14.959 10.1676 15.2108 10.4193C15.3366 10.5452 15.5016 10.6081 15.6665 10.6081C15.8314 10.6081 15.9964 10.5452 16.1222 10.4193L16.7501 9.79146L17.3779 10.4193C17.5038 10.5452 17.6687 10.6081 17.8336 10.6081C17.9986 10.6081 18.1636 10.5452 18.2894 10.4193C18.5411 10.1676 18.5411 9.75953 18.2894 9.50782L17.6615 8.87996L18.2894 8.2521C18.5412 8.00039 18.5412 7.59227 18.2895 7.34061Z" fill="#A3A3A3"/>
<path d="M12.5393 7.34053C12.2876 7.08882 11.8795 7.08882 11.6278 7.34053L10.9999 7.96839L10.372 7.34048C10.1203 7.08882 9.71222 7.08882 9.46051 7.34048C9.2088 7.59215 9.2088 8.00027 9.46051 8.25198L10.0884 8.87984L9.46051 9.5077C9.2088 9.75937 9.2088 10.1675 9.46051 10.4192C9.58637 10.5451 9.75132 10.608 9.91624 10.608C10.0812 10.608 10.2462 10.5451 10.372 10.4192L10.9999 9.79138L11.6278 10.4193C11.7537 10.5451 11.9186 10.6081 12.0835 10.6081C12.2485 10.6081 12.4135 10.5451 12.5393 10.4193C12.791 10.1676 12.791 9.7595 12.5393 9.50778L11.9114 8.87993L12.5393 8.25207C12.791 8.00031 12.791 7.59219 12.5393 7.34053Z" fill="#A3A3A3"/>
<path d="M6.78922 7.34061C6.53755 7.08894 6.12944 7.08894 5.87773 7.34061L5.24987 7.96847L4.62201 7.34061C4.37034 7.08894 3.96222 7.08894 3.71051 7.34061C3.4588 7.59227 3.4588 8.00039 3.71051 8.2521L4.33837 8.87996L3.71051 9.50782C3.4588 9.75949 3.4588 10.1676 3.71051 10.4193C3.83637 10.5452 4.00132 10.6081 4.16624 10.6081C4.33115 10.6081 4.49615 10.5452 4.62196 10.4193L5.24982 9.79146L5.87768 10.4193C6.00354 10.5452 6.1685 10.6081 6.33341 10.6081C6.49832 10.6081 6.66332 10.5452 6.78914 10.4193C7.04085 10.1676 7.04085 9.75953 6.78914 9.50782L6.16128 8.87996L6.78914 8.2521C7.04093 8.00039 7.04093 7.59227 6.78922 7.34061Z" fill="#A3A3A3"/>
<path d="M18.2895 13.7905C18.0378 13.5388 17.6297 13.5388 17.378 13.7905L16.7501 14.4184L16.1223 13.7905C15.8706 13.5388 15.4625 13.5388 15.2108 13.7905C14.959 14.0421 14.959 14.4503 15.2108 14.702L15.8387 15.3299L15.2108 15.9578C14.959 16.2094 14.959 16.6176 15.2108 16.8693C15.3366 16.9951 15.5016 17.0581 15.6665 17.0581C15.8314 17.0581 15.9964 16.9951 16.1222 16.8693L16.7501 16.2414L17.3779 16.8693C17.5038 16.9952 17.6687 17.0581 17.8336 17.0581C17.9986 17.0581 18.1636 16.9951 18.2894 16.8693C18.5411 16.6176 18.5411 16.2095 18.2894 15.9578L17.6615 15.3299L18.2894 14.702C18.5412 14.4503 18.5412 14.0422 18.2895 13.7905Z" fill="#A3A3A3"/>
<path d="M12.5393 13.7904C12.2876 13.5388 11.8795 13.5388 11.6278 13.7904L10.9999 14.4183L10.372 13.7904C10.1203 13.5388 9.71222 13.5388 9.46051 13.7904C9.2088 14.0421 9.2088 14.4502 9.46051 14.7019L10.0884 15.3298L9.46051 15.9577C9.2088 16.2094 9.2088 16.6175 9.46051 16.8692C9.58637 16.9951 9.75132 17.058 9.91624 17.058C10.0812 17.058 10.2462 16.9951 10.372 16.8692L10.9999 16.2413L11.6278 16.8692C11.7537 16.9951 11.9186 17.058 12.0835 17.058C12.2485 17.058 12.4135 16.9951 12.5393 16.8692C12.791 16.6176 12.791 16.2094 12.5393 15.9577L11.9114 15.3298L12.5393 14.7019C12.791 14.4503 12.791 14.0421 12.5393 13.7904Z" fill="#A3A3A3"/>
<path d="M6.78922 13.7905C6.53755 13.5388 6.12944 13.5388 5.87773 13.7905L5.24987 14.4184L4.62201 13.7905C4.37038 13.5388 3.96227 13.5388 3.71051 13.7905C3.4588 14.0421 3.4588 14.4503 3.71051 14.702L4.33841 15.3299L3.71051 15.9578C3.4588 16.2094 3.4588 16.6176 3.71051 16.8693C3.83637 16.9951 4.00132 17.0581 4.16624 17.0581C4.33115 17.0581 4.49615 16.9951 4.62196 16.8693L5.24982 16.2414L5.87768 16.8693C6.00354 16.9952 6.1685 17.0581 6.33341 17.0581C6.49832 17.0581 6.66332 16.9951 6.78914 16.8693C7.04085 16.6176 7.04085 16.2095 6.78914 15.9578L6.16123 15.3299L6.78914 14.702C7.04093 14.4503 7.04093 14.0422 6.78922 13.7905Z" fill="#A3A3A3"/>
</svg>
