<svg width="23" height="24" viewBox="0 0 23 24" fill="none" xmlns="http://www.w3.org/2000/svg">
<path d="M22.9878 12.2246C22.9878 11.2413 22.9095 10.5238 22.7402 9.77966H11.729V14.2177H18.1923C18.0621 15.3206 17.3584 16.9815 15.7946 18.0976L15.7727 18.2462L19.2543 20.9964L19.4955 21.0209C21.7107 18.9348 22.9878 15.8653 22.9878 12.2246Z" fill="#4285F4"/>
<path d="M11.7289 23.9176C14.8954 23.9176 17.5537 22.8545 19.4954 21.0209L15.7945 18.0976C14.8042 18.8018 13.475 19.2934 11.7289 19.2934C8.62754 19.2934 5.9953 17.2074 5.05698 14.324L4.91945 14.3359L1.2993 17.1927L1.25195 17.3269C3.18052 21.2334 7.14195 23.9176 11.7289 23.9176Z" fill="#34A853"/>
<path d="M5.05695 14.3239C4.80937 13.5798 4.66608 12.7825 4.66608 11.9587C4.66608 11.1349 4.80937 10.3376 5.04393 9.59354L5.03737 9.43507L1.37185 6.53235L1.25192 6.59052C0.457066 8.21162 0.000976562 10.032 0.000976562 11.9587C0.000976562 13.8854 0.457066 15.7058 1.25192 17.3269L5.05695 14.3239Z" fill="#FBBC05"/>
<path d="M11.7289 4.62403C13.9311 4.62403 15.4166 5.59402 16.2637 6.40461L19.5735 3.10928C17.5407 1.1826 14.8954 0 11.7289 0C7.14195 0 3.18052 2.68406 1.25195 6.59056L5.04396 9.59359C5.9953 6.7102 8.62754 4.62403 11.7289 4.62403Z" fill="#EB4335"/>
</svg>
