<svg width="20" height="20" viewBox="0 0 20 20" fill="none" xmlns="http://www.w3.org/2000/svg">
<path d="M16.6406 19.3743H3.35938C2.36859 19.3743 1.5625 18.5683 1.5625 17.5774V8.12354C1.5625 7.77838 1.8423 7.49854 2.1875 7.49854C2.5327 7.49854 2.8125 7.77838 2.8125 8.12354V17.5774C2.8125 17.879 3.05781 18.1243 3.35938 18.1243H16.6406C16.9422 18.1243 17.1875 17.879 17.1875 17.5774V8.12354C17.1875 7.77838 17.4673 7.49854 17.8125 7.49854C18.1577 7.49854 18.4375 7.77838 18.4375 8.12354V17.5774C18.4375 18.5682 17.6314 19.3743 16.6406 19.3743Z" fill="#A3A3A3"/>
<path d="M19.375 10.3108C19.215 10.3108 19.0551 10.2498 18.9331 10.1277L11.1601 2.35479C10.5204 1.7151 9.4796 1.7151 8.83991 2.35479L1.06694 10.1278C0.822881 10.3719 0.427139 10.3719 0.183076 10.1278C-0.0610254 9.8837 -0.0610254 9.48795 0.183076 9.24389L7.95605 1.47088C9.08308 0.343853 10.9169 0.343853 12.0439 1.47088L19.8169 9.24385C20.061 9.48795 20.061 9.88366 19.8169 10.1277C19.6949 10.2498 19.535 10.3108 19.375 10.3108Z" fill="#A3A3A3"/>
<path d="M12.5 19.3744H7.5C7.1548 19.3744 6.875 19.0945 6.875 18.7494V13.2025C6.875 12.1256 7.75117 11.2494 8.82812 11.2494H11.1719C12.2488 11.2494 13.125 12.1256 13.125 13.2025V18.7494C13.125 19.0945 12.8452 19.3744 12.5 19.3744ZM8.125 18.1244H11.875V13.2025C11.875 12.8148 11.5596 12.4994 11.1719 12.4994H8.82812C8.44043 12.4994 8.125 12.8148 8.125 13.2025V18.1244Z" fill="#A3A3A3"/>
</svg>
