<svg width="16" height="21" viewBox="0 0 16 21" fill="none" xmlns="http://www.w3.org/2000/svg">
<path d="M1 7.73961C1 12.4556 8 18 8 18C8 18 15 12.4556 15 7.73961C15 3.84774 11.5 0.830516 8 1.0074C4.134 1.20277 1 3.49393 1 7.73961Z" fill="#92DE38" stroke="#92DE38" stroke-width="0.2"/>
<ellipse cx="8" cy="5.19231" rx="1.75" ry="1.69231" fill="#FDFDFD"/>
<path d="M11.5 11.1154C11.5 10.6709 11.4095 10.2308 11.2336 9.82016C11.0577 9.40952 10.7999 9.0364 10.4749 8.72211C10.1499 8.40782 9.76403 8.15851 9.33939 7.98841C8.91475 7.81832 8.45963 7.73077 8 7.73077C7.54037 7.73077 7.08525 7.81832 6.66061 7.98841C6.23597 8.15851 5.85013 8.40782 5.52513 8.72211C5.20012 9.0364 4.94231 9.40952 4.76642 9.82016C4.59053 10.2308 4.5 10.6709 4.5 11.1154L8 11.1154H11.5Z" fill="#FDFDFD"/>
<path fill-rule="evenodd" clip-rule="evenodd" d="M11.3585 16.8296C11.3591 16.9366 11.4227 17.0328 11.5188 17.0798C12.4379 17.5293 12.6174 17.9686 12.6184 18.1514C12.6193 18.3341 12.4444 18.7752 11.5301 19.2339C10.6781 19.6613 9.42949 19.9578 7.9941 19.965C6.55871 19.9722 5.30707 19.6881 4.45066 19.2693C3.53157 18.8198 3.35208 18.3805 3.35112 18.1977C3.35017 18.0149 3.52506 17.5739 4.4394 17.1152C4.53575 17.0669 4.59876 16.9694 4.5982 16.8616L4.59738 16.704C4.59549 16.3429 4.23274 16.0944 3.91262 16.2614C2.94196 16.7678 2.34721 17.4521 2.35114 18.2027C2.35919 19.7438 4.88797 20.9805 7.99933 20.965C11.1107 20.9494 13.6264 19.6875 13.6183 18.1464C13.6144 17.3961 13.0131 16.718 12.0379 16.2213C11.716 16.0574 11.3558 16.3097 11.3577 16.6708L11.3585 16.8296Z" fill="#92DE38"/>
</svg>
