<svg width="20" height="20" viewBox="0 0 20 20" fill="none" xmlns="http://www.w3.org/2000/svg">
<path d="M17.6084 4.50997L13.2935 0.194949C13.1686 0.070101 12.9993 0 12.8228 0H2.86163C2.49409 0 2.19604 0.298047 2.19604 0.665522V19.3344C2.19604 19.702 2.49409 20 2.86163 20H17.1378C17.5054 20 17.8034 19.702 17.8034 19.3344V4.98054C17.8034 4.80404 17.7333 4.63475 17.6084 4.50997ZM13.4884 2.27239L15.531 4.31502H13.4884V2.27239ZM3.52722 18.6688V1.33111H12.1572V4.98054C12.1572 5.34815 12.4553 5.64613 12.8228 5.64613H16.4723V18.6689H3.52722V18.6688Z" fill="#A3A3A3"/>
<path d="M10.0687 9.20378C9.96764 8.95106 9.72286 8.7854 9.45067 8.7854C9.17855 8.7854 8.93377 8.95106 8.83269 9.20378L6.6364 14.6946C6.4999 15.0359 6.66589 15.4232 7.00717 15.5598C7.34831 15.6962 7.73572 15.5302 7.87236 15.189L8.14421 14.5092H10.7572L11.0291 15.189C11.1332 15.4492 11.3831 15.6076 11.6473 15.6076C11.7296 15.6076 11.8132 15.5921 11.8942 15.5598C12.2355 15.4232 12.4016 15.036 12.2651 14.6946L10.0687 9.20378ZM8.67673 13.178L9.45074 11.243L10.2248 13.178H8.67673Z" fill="#A3A3A3"/>
<path d="M14.2459 8.98514H13.7104V8.44628C13.7104 8.07874 13.4124 7.78076 13.0448 7.78076C12.6773 7.78076 12.3793 8.07874 12.3793 8.44628V8.98514H11.8438C11.4762 8.98514 11.1782 9.28312 11.1782 9.65066C11.1782 10.0183 11.4762 10.3163 11.8438 10.3163H12.3793V10.8551C12.3793 11.2226 12.6773 11.5207 13.0448 11.5207C13.4124 11.5207 13.7104 11.2226 13.7104 10.8551V10.3163H14.2459C14.6134 10.3163 14.9115 10.0183 14.9115 9.65066C14.9114 9.28305 14.6134 8.98514 14.2459 8.98514Z" fill="#A3A3A3"/>
</svg>
