<svg width="20" height="16" viewBox="0 0 20 16" fill="none" xmlns="http://www.w3.org/2000/svg">
<path d="M16.513 0.0552979H8.68762V2.35417C7.46199 2.36725 6.24043 2.83999 5.30734 3.77311C4.39047 4.68999 3.88551 5.90905 3.88551 7.20569C3.88551 8.30444 4.2482 9.34741 4.9168 10.1981L4.25086 10.864L2.4807 11.0122L0.507969 12.9849C0.180391 13.3125 0 13.748 0 14.2113C0 14.6745 0.180391 15.1101 0.507969 15.4376C0.846055 15.7758 1.2902 15.9448 1.73434 15.9448C2.17844 15.9448 2.62258 15.7758 2.96066 15.4376L4.93344 13.4649L5.0816 11.6948L5.74754 11.0288C6.58469 11.6867 7.60809 12.0481 8.68762 12.0594V14.1483H20V3.52799L16.513 0.0552979ZM16.8578 2.05682L17.9902 3.18463H16.8578V2.05682ZM3.79852 12.9382L2.12992 14.6069C1.91176 14.825 1.55684 14.825 1.33871 14.6069C1.23305 14.5012 1.17484 14.3607 1.17484 14.2113C1.17484 14.0618 1.23305 13.9214 1.33871 13.8156L3.00734 12.1471L3.87082 12.0748L3.79852 12.9382ZM5.06039 7.20565C5.06039 6.2228 5.44312 5.29877 6.13809 4.60381C6.85551 3.88639 7.79754 3.52784 8.73988 3.52784C9.68199 3.52784 10.6245 3.88659 11.3417 4.60381C12.7764 6.03846 12.7764 8.37284 11.3417 9.80745C10.6468 10.5024 9.72273 10.8851 8.73988 10.8851C7.75703 10.8851 6.83305 10.5024 6.13809 9.80745C5.44312 9.11248 5.06039 8.1885 5.06039 7.20565ZM9.8625 12.9734V11.93C10.4859 11.7831 11.0723 11.5139 11.5928 11.1342H14.4221V9.95936H12.738C12.9712 9.62112 13.1565 9.25971 13.2942 8.88452H17.8479V7.70967H13.5657C13.5999 7.37971 13.6005 7.04698 13.5674 6.71694H17.8479V5.54206H13.2997C13.0652 4.89612 12.6896 4.29022 12.1725 3.77307C11.5131 3.1137 10.7096 2.68432 9.8625 2.48436V1.23014H15.683V4.35948H18.8252V12.9734H9.8625Z" fill="#A3A3A3"/>
</svg>
