<svg width="55" height="58" viewBox="0 0 55 58" fill="none" xmlns="http://www.w3.org/2000/svg">
<g filter="url(#filter0_d)">
<rect x="3" y="1" width="49" height="52" rx="8" fill="#FEFEFE"/>
<rect x="3" y="1" width="49" height="52" rx="8" stroke="#A5B0C2" stroke-width="0.5"/>
</g>
<path d="M13.7977 7.20361C12.9033 7.20361 12.0586 8.04831 12.0586 8.94274V45.4645C12.0586 46.3092 12.953 47.2036 13.7977 47.2036H41.6238C42.4685 47.2036 43.3629 46.3092 43.3629 45.4645V18.508L32.0586 7.20361H13.7977Z" fill="#D41A1A"/>
<g filter="url(#filter1_f)">
<path d="M31.959 7.47467L43.2633 18.779H33.6981C32.8534 18.779 31.959 17.8846 31.959 17.0399V7.47467Z" fill="black" fill-opacity="0.392"/>
</g>
<path d="M32.0586 7.20361L43.3629 18.508H33.7977C32.953 18.508 32.0586 17.6135 32.0586 16.7688V7.20361Z" fill="#E55A5A"/>
<path d="M24.1326 17.7632C23.1087 17.7453 22.225 18.7637 22.4415 19.7812C22.5872 21.3359 23.5897 22.5976 24.372 23.8814C24.46 24.3595 24.2078 24.8249 24.1909 25.2995C23.6809 28.086 22.9027 30.8574 21.7056 33.4144C20.2243 34.0963 18.5468 34.7697 17.6805 36.2395C17.1307 37.2593 17.9049 38.6355 19.0414 38.7431C20.0958 38.8873 20.8784 37.9837 21.4548 37.2267C22.0566 36.4123 22.4527 35.4427 22.9534 34.5675C25.9836 33.3471 29.1717 32.4942 32.426 32.1704C33.7418 33.1121 35.136 34.2232 36.8233 34.2903C37.8041 34.2757 38.5978 33.3236 38.4903 32.3566C38.4271 31.4762 37.645 30.8588 36.8347 30.6936C35.5278 30.2999 34.1279 30.5155 32.7985 30.5251C30.2404 28.481 27.8788 26.1291 26.0186 23.4382C26.1567 21.8022 26.4339 19.9925 25.582 18.5042C25.2585 18.0348 24.7103 17.7129 24.1325 17.7636L24.1326 17.7632ZM24.1813 19.2494C24.4693 19.3049 24.4885 19.7339 24.5692 19.9634C24.6451 20.4309 24.6367 20.9081 24.6312 21.3803C24.2882 20.7392 23.8426 20.0694 23.922 19.3094C24.0124 19.3054 24.0925 19.26 24.1813 19.2495L24.1813 19.2494ZM25.7686 25.6296C27.2933 27.5253 28.9869 29.2712 30.8351 30.8538C28.398 31.2255 25.9769 31.8481 23.6583 32.6881C24.5475 30.3639 25.2246 27.9627 25.6707 25.512C25.7032 25.5512 25.7357 25.5903 25.7682 25.6296H25.7686ZM35.2787 32.0025C35.8699 32.0595 36.552 32.0253 37.0254 32.4327C37.0698 32.8004 36.6199 32.854 36.3804 32.721C35.8806 32.5541 35.3862 32.3443 34.962 32.0246C35.0677 32.0176 35.173 32.0045 35.2791 32.0024L35.2787 32.0025ZM20.5065 35.8697C20.2254 36.3926 19.8162 36.8855 19.3895 37.2557C19.2475 37.4856 18.8577 37.0605 19.037 36.881C19.4073 36.3014 20.0537 35.9942 20.6259 35.6481C20.586 35.722 20.5462 35.7959 20.5063 35.8698" fill="white"/>
<defs>
<filter id="filter0_d" x="0.75" y="0.75" width="53.5" height="56.5" filterUnits="userSpaceOnUse" color-interpolation-filters="sRGB">
<feFlood flood-opacity="0" result="BackgroundImageFix"/>
<feColorMatrix in="SourceAlpha" type="matrix" values="0 0 0 0 0 0 0 0 0 0 0 0 0 0 0 0 0 0 127 0" result="hardAlpha"/>
<feOffset dy="2"/>
<feGaussianBlur stdDeviation="1"/>
<feColorMatrix type="matrix" values="0 0 0 0 0 0 0 0 0 0 0 0 0 0 0 0 0 0 0.1 0"/>
<feBlend mode="normal" in2="BackgroundImageFix" result="effect1_dropShadow"/>
<feBlend mode="normal" in="SourceGraphic" in2="effect1_dropShadow" result="shape"/>
</filter>
<filter id="filter1_f" x="31.3938" y="6.90945" width="12.4348" height="12.4348" filterUnits="userSpaceOnUse" color-interpolation-filters="sRGB">
<feFlood flood-opacity="0" result="BackgroundImageFix"/>
<feBlend mode="normal" in="SourceGraphic" in2="BackgroundImageFix" result="shape"/>
<feGaussianBlur stdDeviation="0.282609" result="effect1_foregroundBlur"/>
</filter>
</defs>
</svg>
