<svg width="20" height="20" viewBox="0 0 20 20" fill="none" xmlns="http://www.w3.org/2000/svg">
<path fill-rule="evenodd" clip-rule="evenodd" d="M10 9.8C12.3748 9.8 14.3 7.87482 14.3 5.5C14.3 3.12518 12.3748 1.2 10 1.2C7.62518 1.2 5.7 3.12518 5.7 5.5C5.7 7.87482 7.62518 9.8 10 9.8ZM10 11C13.0376 11 15.5 8.53757 15.5 5.5C15.5 2.46243 13.0376 0 10 0C6.96243 0 4.5 2.46243 4.5 5.5C4.5 8.53757 6.96243 11 10 11Z" fill="#A3A3A3"/>
<path d="M18 19C18 14.5817 14.4183 11 10 11C5.58172 11 2 14.5817 2 19" stroke="#A3A3A3" stroke-width="1.2" stroke-linecap="round"/>
</svg>
